<svg width="16" height="16" viewBox="0 0 16 16" fill="none" xmlns="http://www.w3.org/2000/svg">
<g clip-path="url(#clip0_677_252)">
<path d="M8.03798 5.40143C9.48392 5.40143 10.656 4.22383 10.656 2.77133C10.656 1.31868 9.48392 0.141235 8.03798 0.141235C6.59204 0.141235 5.41992 1.31868 5.41992 2.77133C5.41992 4.22383 6.59204 5.40143 8.03798 5.40143Z" fill="#191823"/>
<path d="M7.99994 15.8477C9.52375 15.8477 10.5904 14.781 10.5904 13.2572C10.5904 11.8858 9.52375 10.6667 7.99994 10.6667C6.62852 10.6667 5.40947 11.8858 5.40947 13.2572C5.40947 14.781 6.62852 15.8477 7.99994 15.8477ZM2.81899 10.6667C4.19042 10.6667 5.40947 9.44766 5.40947 8.07623C5.40947 6.55242 4.19042 5.33337 2.81899 5.33337C1.29518 5.33337 0.228516 6.55242 0.228516 8.07623C0.228516 9.44766 1.29518 10.6667 2.81899 10.6667ZM13.3333 10.6667C14.7047 10.6667 15.9238 9.44766 15.9238 8.07623C15.9238 6.55242 14.7047 5.33337 13.3333 5.33337C11.8095 5.33337 10.5904 6.55242 10.5904 8.07623C10.5904 9.44766 11.8095 10.6667 13.3333 10.6667Z" fill="#0069EC"/>
</g>
<defs>
<clipPath id="clip0_677_252">
<rect width="16" height="16" fill="white"/>
</clipPath>
</defs>
</svg>
