<?xml version="1.0" encoding="utf-8"?>
<svg viewBox="91.506 70.174 268.307 368.243" xmlns="http://www.w3.org/2000/svg">
  <path d="M 136.224 70.174 C 111.559 70.174 91.506 90.816 91.506 116.205 L 91.506 392.386 C 91.506 417.775 111.559 438.417 136.224 438.417 L 315.096 438.417 C 339.76 438.417 359.813 417.775 359.813 392.386 L 359.813 185.25 L 270.378 185.25 C 258.01 185.25 248.019 174.965 248.019 162.235 L 248.019 70.174 L 136.224 70.174 Z M 270.378 70.174 L 270.378 162.235 L 359.813 162.235 L 270.378 70.174 Z M 147.404 116.205 L 192.121 116.205 C 198.27 116.205 203.3 121.383 203.3 127.712 C 203.3 134.042 198.27 139.219 192.121 139.219 L 147.404 139.219 C 141.255 139.219 136.224 134.042 136.224 127.712 C 136.224 121.383 141.255 116.205 147.404 116.205 Z M 147.404 162.235 L 192.121 162.235 C 198.27 162.235 203.3 167.413 203.3 173.743 C 203.3 180.071 198.27 185.25 192.121 185.25 L 147.404 185.25 C 141.255 185.25 136.224 180.071 136.224 173.743 C 136.224 167.413 141.255 162.235 147.404 162.235 Z M 158.583 231.281 L 292.737 231.281 C 305.103 231.281 315.096 241.565 315.096 254.295 L 315.096 300.326 C 315.096 313.056 305.103 323.341 292.737 323.341 L 158.583 323.341 C 146.216 323.341 136.224 313.056 136.224 300.326 L 136.224 254.295 C 136.224 241.565 146.216 231.281 158.583 231.281 Z M 158.583 254.295 L 158.583 300.326 L 292.737 300.326 L 292.737 254.295 L 158.583 254.295 Z M 259.198 369.372 L 303.916 369.372 C 310.065 369.372 315.096 374.55 315.096 380.879 C 315.096 387.209 310.065 392.386 303.916 392.386 L 259.198 392.386 C 253.049 392.386 248.019 387.209 248.019 380.879 C 248.019 374.55 253.049 369.372 259.198 369.372 Z" style="fill: rgb(50, 96, 241);"/>
</svg>