<svg width="240" height="105" viewBox="0 0 240 105" fill="none" xmlns="http://www.w3.org/2000/svg">
<path d="M1.5307 97.15C1.5307 97.15 10.6207 87.84 17.1207 95.18C19.7707 98.17 23.7107 98.78 27.4607 98C29.0907 97.66 30.6607 97.11 32.1807 96.43C34.4207 95.41 36.4707 94.35 38.9707 94.05C40.7807 93.84 43.4407 93.86 44.9607 95C44.4107 95.19 43.4307 94.85 42.7907 94.79C41.9607 94.72 41.1207 94.71 40.2907 94.77C38.6207 94.9 37.0007 95.32 35.4507 95.94C32.2007 97.23 29.0307 99 25.5407 99.21C22.6007 99.38 19.6107 98.37 17.3907 96.45C15.1007 94.47 13.4807 92.73 10.2507 93.1C6.9807 93.47 3.9907 95.58 1.5507 97.63C1.5307 97.63 0.710701 97.9 1.5307 97.15Z" fill="#3260F1"/>
<path d="M69.2605 39.7998C69.0705 40.0798 68.8905 40.3598 68.7005 40.6398C65.6005 45.2098 62.0205 49.5798 58.4505 52.0798C48.5905 58.9798 39.7105 60.9598 39.7105 60.9598L55.9805 57.5098C55.9805 57.5098 35.2705 81.1798 16.4005 76.2498L2.64048 94.9998C2.64048 94.9998 -1.81952 101.12 1.73048 94.4998C1.73048 94.4998 49.0705 1.7898 89.0205 0.799805C89.0205 0.799805 85.0705 14.1198 81.6205 19.0498C78.1805 23.9698 65.8505 21.9998 65.8505 21.9998L78.1805 23.9698C78.1805 23.9698 74.9605 30.8998 70.3505 38.1298C70.3505 38.1298 68.3905 38.8098 60.1605 38.3498L69.2605 39.7998Z" fill="#3260F1"/>
<path d="M5.14062 90.0199C5.14062 90.0199 50.6006 13.1899 87.8006 1.6499C87.8006 1.6499 55.0406 14.1599 5.14062 90.0199Z" fill="white"/>
<path d="M64.5707 97.17C60.5307 97.17 57.3707 96.04 55.1007 93.79C52.8207 91.54 51.6807 88.32 51.6807 84.11V68.21H58.3107V83.94C58.3107 86.62 58.8707 88.57 59.9807 89.77C61.0907 90.97 62.6407 91.58 64.6207 91.58C66.6307 91.58 68.1807 90.98 69.3007 89.77C70.4107 88.56 70.9707 86.62 70.9707 83.94V68.22H77.4307V84.12C77.4307 88.32 76.2907 91.55 74.0107 93.8C71.7307 96.04 68.5807 97.17 64.5707 97.17Z" fill="#212121"/>
<path d="M83.9609 96.6797V68.2197H96.2809C98.8309 68.2197 101.021 68.6297 102.871 69.4597C104.711 70.2897 106.141 71.4697 107.141 73.0197C108.141 74.5697 108.641 76.3997 108.641 78.5097C108.641 80.6497 108.141 82.4897 107.141 84.0197C106.141 85.5497 104.711 86.7397 102.871 87.5797C101.031 88.4197 98.8309 88.8397 96.2809 88.8397H87.5809L90.5909 85.8697V96.6897H83.9609V96.6797ZM90.5909 86.5897L87.5809 83.4597H95.9109C97.9209 83.4597 99.4309 83.0297 100.461 82.1597C101.491 81.2897 102.011 80.0697 102.011 78.4997C102.011 76.9297 101.491 75.7097 100.461 74.8597C99.4309 74.0097 97.9109 73.5797 95.9109 73.5797H87.5809L90.5909 70.4497V86.5897Z" fill="#212121"/>
<path d="M108.161 96.6797L120.811 68.2197H127.311L140.081 96.6797H133.171L122.721 71.5497H125.361L114.911 96.6797H108.161ZM114.541 90.5797L116.211 85.5797H130.931L132.641 90.5797H114.541Z" fill="#212121"/>
<path d="M163.741 97.0001C161.571 97.0001 159.501 96.6701 157.521 96.0001C155.541 95.3301 153.981 94.4801 152.841 93.4201L154.341 90.2501C155.421 91.2001 156.811 91.9801 158.491 92.6101C160.171 93.2301 161.921 93.5401 163.741 93.5401C165.391 93.5401 166.741 93.3501 167.771 92.9701C168.801 92.5901 169.561 92.0701 170.051 91.4001C170.541 90.7401 170.781 89.9801 170.781 89.1401C170.781 88.1601 170.461 87.3801 169.821 86.7801C169.181 86.1801 168.361 85.7001 167.341 85.3401C166.321 84.9701 165.211 84.6601 163.991 84.3801C162.771 84.1101 161.541 83.7901 160.311 83.4201C159.081 83.0501 157.951 82.5901 156.931 82.0201C155.911 81.4501 155.091 80.6901 154.471 79.7201C153.851 78.7601 153.541 77.5201 153.541 76.0001C153.541 74.5401 153.931 73.1901 154.701 71.9601C155.471 70.7301 156.671 69.7401 158.281 68.9901C159.891 68.2401 161.951 67.8701 164.441 67.8701C166.091 67.8701 167.731 68.0901 169.361 68.5201C170.991 68.9501 172.401 69.5801 173.591 70.3901L172.251 73.6401C171.031 72.8301 169.741 72.2401 168.391 71.8701C167.031 71.5001 165.721 71.3201 164.451 71.3201C162.851 71.3201 161.541 71.5201 160.511 71.9301C159.481 72.3401 158.731 72.8801 158.251 73.5601C157.781 74.2401 157.541 75.0001 157.541 75.8401C157.541 76.8401 157.861 77.6401 158.501 78.2401C159.141 78.8401 159.961 79.3101 160.981 79.6601C162.001 80.0101 163.111 80.3301 164.331 80.6201C165.551 80.9101 166.781 81.2201 168.011 81.5801C169.241 81.9301 170.371 82.3901 171.391 82.9601C172.411 83.5301 173.231 84.2901 173.851 85.2401C174.471 86.1901 174.781 87.4101 174.781 88.9001C174.781 90.3401 174.391 91.6701 173.601 92.9001C172.811 94.1301 171.601 95.1201 169.961 95.8701C168.301 96.6301 166.231 97.0001 163.741 97.0001Z" fill="#212121"/>
<path d="M182.071 70.9799C181.311 70.9799 180.681 70.7399 180.181 70.2499C179.681 69.7599 179.431 69.1699 179.431 68.4599C179.431 67.7299 179.681 67.1199 180.181 66.6299C180.681 66.1399 181.311 65.8999 182.071 65.8999C182.831 65.8999 183.461 66.1399 183.961 66.6099C184.461 67.0799 184.711 67.6699 184.711 68.3799C184.711 69.1099 184.471 69.7299 183.981 70.2299C183.501 70.7299 182.861 70.9799 182.071 70.9799ZM180.121 96.6799V75.1299H184.021V96.6799H180.121Z" fill="#212121"/>
<path d="M200.41 95.7799C198.32 95.7799 196.46 95.3399 194.82 94.4599C193.18 93.5799 191.88 92.3499 190.92 90.7799C189.96 89.2099 189.48 87.3899 189.48 85.3299C189.48 83.2399 189.96 81.4199 190.92 79.8599C191.88 78.2999 193.18 77.0899 194.82 76.2199C196.46 75.3499 198.32 74.9199 200.41 74.9199C202.25 74.9199 203.93 75.2899 205.45 76.0399C206.97 76.7899 208.18 77.9299 209.09 79.4799C210 81.0299 210.45 82.9799 210.45 85.3399C210.45 87.6699 210 89.6099 209.09 91.1499C208.18 92.6899 206.97 93.8499 205.45 94.6299C203.93 95.3999 202.25 95.7799 200.41 95.7799ZM200.9 104.81C198.92 104.81 197 104.53 195.15 103.98C193.29 103.42 191.78 102.63 190.62 101.6L192.49 98.5899C193.49 99.4599 194.73 100.14 196.19 100.64C197.65 101.14 199.19 101.39 200.78 101.39C203.33 101.39 205.2 100.79 206.39 99.5999C207.58 98.4099 208.18 96.5899 208.18 94.1499V89.5999L208.59 85.3299L208.39 81.0199V75.1199H212.09V93.7399C212.09 97.5299 211.14 100.33 209.24 102.12C207.34 103.91 204.56 104.81 200.9 104.81ZM200.86 92.3699C202.3 92.3699 203.57 92.0699 204.68 91.4799C205.79 90.8799 206.67 90.0599 207.3 88.9999C207.94 87.9399 208.26 86.7199 208.26 85.3399C208.26 83.9599 207.94 82.7399 207.3 81.6799C206.66 80.6199 205.79 79.7999 204.68 79.2199C203.57 78.6399 202.29 78.3499 200.86 78.3499C199.43 78.3499 198.14 78.6399 197.02 79.2199C195.89 79.7999 195.01 80.6199 194.38 81.6799C193.74 82.7399 193.42 83.9599 193.42 85.3399C193.42 86.7199 193.74 87.9399 194.38 88.9999C195.02 90.0599 195.9 90.8799 197.02 91.4799C198.14 92.0699 199.42 92.3699 200.86 92.3699Z" fill="#212121"/>
<path d="M231.02 74.9199C232.78 74.9199 234.33 75.2599 235.68 75.9399C237.02 76.6199 238.07 77.6499 238.83 79.0299C239.59 80.4099 239.97 82.1599 239.97 84.2799V96.6799H236.07V84.7299C236.07 82.6399 235.56 81.0699 234.55 80.0099C233.53 78.9499 232.1 78.4199 230.26 78.4199C228.88 78.4199 227.67 78.6899 226.64 79.2299C225.61 79.7699 224.82 80.5699 224.26 81.6299C223.7 82.6899 223.43 83.9999 223.43 85.5699V96.6699H219.53V75.1299H223.27V80.9399L222.66 79.3999C223.36 77.9899 224.45 76.8899 225.91 76.1099C227.37 75.3199 229.07 74.9199 231.02 74.9199Z" fill="#212121"/>
</svg>
